<svg width="27" height="32" viewBox="0 0 27 32" fill="none" xmlns="http://www.w3.org/2000/svg">
<path d="M6.11914 30.65C4.60872 30.65 3.31966 30.1375 2.25195 29.1125C1.18424 28.0875 0.650391 26.85 0.650391 25.4V5.90002C0.650391 4.45002 1.18424 3.21252 2.25195 2.18752C3.31966 1.16252 4.60872 0.650024 6.11914 0.650024H22.5254C23.3848 0.650024 24.1204 0.943774 24.7324 1.53127C25.3444 2.11877 25.6504 2.82502 25.6504 3.65002V22.4375C25.6504 22.6375 25.5658 22.8188 25.3965 22.9813C25.2272 23.1438 24.9212 23.325 24.4785 23.525C24.1139 23.7 23.8275 23.95 23.6191 24.275C23.4108 24.6 23.3066 24.975 23.3066 25.4C23.3066 25.825 23.4108 26.2063 23.6191 26.5438C23.8275 26.8813 24.1139 27.125 24.4785 27.275C24.8431 27.425 25.1296 27.6313 25.3379 27.8938C25.5462 28.1563 25.6504 28.4375 25.6504 28.7375V29.1125C25.6504 29.5375 25.5007 29.9 25.2012 30.2C24.9017 30.5 24.5306 30.65 24.0879 30.65H6.11914ZM8.46289 20.15C8.9056 20.15 9.27669 20.0063 9.57617 19.7188C9.87565 19.4313 10.0254 19.075 10.0254 18.65V5.15002C10.0254 4.72502 9.87565 4.36877 9.57617 4.08127C9.27669 3.79377 8.9056 3.65002 8.46289 3.65002C8.02018 3.65002 7.64909 3.79377 7.34961 4.08127C7.05013 4.36877 6.90039 4.72502 6.90039 5.15002V18.65C6.90039 19.075 7.05013 19.4313 7.34961 19.7188C7.64909 20.0063 8.02018 20.15 8.46289 20.15ZM6.11914 27.65H20.6895C20.5332 27.3 20.4095 26.9438 20.3184 26.5813C20.2272 26.2188 20.1816 25.825 20.1816 25.4C20.1816 25 20.2207 24.6125 20.2988 24.2375C20.377 23.8625 20.5072 23.5 20.6895 23.15H6.11914C5.44206 23.15 4.88216 23.3688 4.43945 23.8063C3.99674 24.2438 3.77539 24.775 3.77539 25.4C3.77539 26.05 3.99674 26.5875 4.43945 27.0125C4.88216 27.4375 5.44206 27.65 6.11914 27.65Z" fill="#A7D4B1" stroke="#011B2F" stroke-width="1.3"/>
</svg>
