<svg width="32" height="32" viewBox="0 0 32 32" fill="none" xmlns="http://www.w3.org/2000/svg">
<path d="M3.65039 30.65C2.82539 30.65 2.11939 30.3411 1.53239 29.7232C0.944391 29.1042 0.650391 28.3606 0.650391 27.4921V10.1237C0.650391 9.25529 0.944391 8.51213 1.53239 7.89424C2.11939 7.27529 2.82539 6.96581 3.65039 6.96581H9.65039V3.80792C9.65039 2.9395 9.94439 2.19581 10.5324 1.57687C11.1194 0.958972 11.8254 0.650024 12.6504 0.650024H18.6504C19.4754 0.650024 20.1819 0.958972 20.7699 1.57687C21.3569 2.19581 21.6504 2.9395 21.6504 3.80792V6.96581H27.6504C28.4754 6.96581 29.1819 7.27529 29.7699 7.89424C30.3569 8.51213 30.6504 9.25529 30.6504 10.1237V27.4921C30.6504 28.3606 30.3569 29.1042 29.7699 29.7232C29.1819 30.3411 28.4754 30.65 27.6504 30.65H3.65039ZM12.6504 6.96581H18.6504V3.80792H12.6504V6.96581Z" fill="#F28583" stroke="#011B2F" stroke-width="1.3"/>
</svg>
