<svg width="34" height="34" viewBox="0 0 34 34" fill="none" xmlns="http://www.w3.org/2000/svg">
<path d="M7.86111 14.6167V7.86111H4.30556V9.63889C4.30556 10.7648 4.63148 11.7796 5.28333 12.6833C5.93519 13.587 6.79444 14.2315 7.86111 14.6167ZM25.6389 14.6167C26.7056 14.2315 27.5648 13.587 28.2167 12.6833C28.8685 11.7796 29.1944 10.7648 29.1944 9.63889V7.86111H25.6389V14.6167ZM14.9722 29.1944V23.6833C13.5204 23.3574 12.2241 22.7426 11.0833 21.8389C9.94259 20.9352 9.10556 19.8019 8.57222 18.4389C6.35 18.1722 4.49074 17.2019 2.99444 15.5278C1.49815 13.8537 0.75 11.8907 0.75 9.63889V7.86111C0.75 6.88333 1.09815 6.0463 1.79444 5.35C2.49074 4.6537 3.32778 4.30556 4.30556 4.30556H7.86111C7.86111 3.32778 8.20926 2.49074 8.90556 1.79444C9.60185 1.09815 10.4389 0.75 11.4167 0.75H22.0833C23.0611 0.75 23.8981 1.09815 24.5944 1.79444C25.2907 2.49074 25.6389 3.32778 25.6389 4.30556H29.1944C30.1722 4.30556 31.0093 4.6537 31.7056 5.35C32.4019 6.0463 32.75 6.88333 32.75 7.86111V9.63889C32.75 11.8907 32.0019 13.8537 30.5056 15.5278C29.0093 17.2019 27.15 18.1722 24.9278 18.4389C24.3944 19.8019 23.5574 20.9352 22.4167 21.8389C21.2759 22.7426 19.9796 23.3574 18.5278 23.6833V29.1944H23.8611C24.3648 29.1944 24.787 29.3648 25.1278 29.7056C25.4685 30.0463 25.6389 30.4685 25.6389 30.9722C25.6389 31.4759 25.4685 31.8981 25.1278 32.2389C24.787 32.5796 24.3648 32.75 23.8611 32.75H9.63889C9.13519 32.75 8.71296 32.5796 8.37222 32.2389C8.03148 31.8981 7.86111 31.4759 7.86111 30.9722C7.86111 30.4685 8.03148 30.0463 8.37222 29.7056C8.71296 29.3648 9.13519 29.1944 9.63889 29.1944H14.9722Z" fill="#FFDD67" stroke="#011B2F" stroke-width="1.5"/>
</svg>
