<svg width="234" height="28" viewBox="0 0 234 28" fill="none" xmlns="http://www.w3.org/2000/svg">
<path d="M135.483 3C133.606 3 131.731 3.01517 129.851 3.07885C113.278 3.62777 84.9834 3.77334 68.4075 3.80063C44.7972 4.21308 32.8422 4.56184 9.26229 5.10166C8.12675 5.11682 5.27124 6.69382 4.05696 8.27689C2.47932 10.3149 3.0486 9.86602 3.36353 12.0647C3.86922 15.5099 6.44009 15.4917 10.3524 16.5531C15.6819 18.0058 22.5406 15.619 27.8882 15.1944C35.8552 14.5727 43.7859 17.1202 51.7225 16.3954C59.4018 15.7009 67.0963 17.3749 74.7968 16.8382C100.787 15.0822 127.138 14.3908 152.91 13.7115C164.426 13.393 166.633 12.7471 178.162 12.4317C179.709 12.3801 186.995 12.3801 188.554 12.3377C180.321 14.7244 168.59 16.0648 160.656 20.4835C160.483 20.5653 159.254 22.1302 160.075 22.6973C166.727 27.2615 178.352 23.962 184.929 21.9998C199.616 17.7237 210.29 16.8867 226.884 14.879C229.076 14.6243 231.468 12.462 230.92 10.7849C230.175 8.49221 228.728 6.83332 226.172 6.28743C223.302 5.65057 218.917 6.69685 216.93 6.03269C212.213 4.46479 197.133 5.89015 192.245 5.84163C185.577 5.77794 181.698 6.01449 175.024 5.51106C161.901 4.50118 148.637 3.01516 135.483 3Z" fill="#011B2F" stroke="#F6F6F6" stroke-width="6"/>
</svg>
