<svg width="55" height="49" viewBox="0 0 55 49" fill="none" xmlns="http://www.w3.org/2000/svg">
<path d="M12.7445 37.9941C12.2925 37.9106 11.931 37.8271 11.4791 37.6601C11.0271 37.4932 10.6656 37.4097 10.304 37.2427C9.49056 36.9087 8.76747 36.4913 8.04438 35.9904C6.5982 35.072 5.42318 33.8197 4.51932 32.3169C3.61545 30.8976 3.07313 29.2279 2.98275 27.6416C2.89236 26.8067 2.98275 26.0553 3.07313 25.2204C3.16352 24.803 3.25391 24.4691 3.34429 24.0516C3.43468 23.6342 3.61545 23.3002 3.70584 22.8828L3.79623 24.0516C3.79623 24.4691 3.88661 24.803 3.977 25.2204C4.06738 25.9718 4.24816 26.7232 4.42893 27.3911C4.79047 28.8104 5.33279 30.1462 6.14627 31.3985C6.95975 32.6509 7.86361 33.8197 9.03863 34.905C9.58095 35.406 10.2137 35.9069 10.8464 36.4078C11.1175 36.6583 11.4791 36.9087 11.8406 37.1592L12.7445 37.9941ZM12.4733 40.9996C12.2022 41.1666 11.8406 41.2501 11.4791 41.3336C11.1175 41.4171 10.8464 41.5006 10.4848 41.5006C9.85211 41.5841 9.12902 41.6675 8.40593 41.5841C7.05013 41.5006 5.60395 41.1666 4.42893 40.5822C3.16352 39.9978 2.07889 39.0794 1.35579 37.9941C0.994249 37.4932 0.632704 36.9087 0.361545 36.3243C0.271159 36.0739 0.180773 35.7399 0.0903862 35.406C0.0903862 35.1555 0 34.905 0 34.5711C0.271159 34.8215 0.451932 35.072 0.632704 35.239C0.903863 35.4894 1.08464 35.7399 1.26541 35.9069C1.71734 36.3243 2.07889 36.7418 2.53082 37.0757C3.43468 37.8271 4.33854 38.495 5.42318 38.9959C6.41743 39.4969 7.59245 39.9143 8.67709 40.2483C9.2194 40.4152 9.85211 40.4987 10.4848 40.6657C10.756 40.7492 11.1175 40.7492 11.3887 40.8327C11.8406 40.9162 12.1118 40.9162 12.4733 40.9996ZM32.9006 0.424556C33.3526 0.508044 33.7141 0.67502 34.166 0.841995C34.618 1.00897 34.9795 1.17595 35.341 1.34292C36.1545 1.76036 36.8776 2.1778 37.6007 2.67873C39.0469 3.68058 40.2219 5.01639 41.0354 6.51917C41.8489 8.02195 42.3008 9.6917 42.3008 11.278C42.3008 12.1129 42.2104 12.8642 42.0296 13.6991C41.9393 14.1166 41.8489 14.4505 41.6681 14.868C41.4873 15.2854 41.3969 15.6193 41.2162 15.9533L41.1258 14.7845C41.1258 14.367 41.1258 14.0331 41.0354 13.6156L40.7642 11.3615C40.4931 9.94217 39.9508 8.52288 39.2277 7.18707C38.5046 5.85127 37.6007 4.68244 36.5161 3.59709C35.9738 3.01268 35.341 2.51175 34.7987 1.92734C34.5276 1.67687 34.166 1.42641 33.8045 1.17595L32.9006 0.424556ZM40.7642 0.0906048C41.1258 0.174093 41.3969 0.257581 41.6681 0.424556C41.9392 0.508044 42.3008 0.67502 42.572 0.841995C43.1143 1.17595 43.6566 1.5099 44.1989 1.92734C45.1932 2.76222 46.0066 3.76407 46.4586 4.9329C47.0009 6.10173 47.1817 7.35405 47.0009 8.60636C46.9105 9.19078 46.7297 9.77519 46.549 10.3596C46.4586 10.6101 46.2778 10.944 46.1874 11.1945C46.0066 11.4449 45.9162 11.6954 45.6451 11.9459V11.111V10.2761C45.6451 9.69171 45.5547 9.19078 45.5547 8.68985C45.3739 7.60451 45.1932 6.60266 44.7412 5.68429C44.2893 4.68244 43.747 3.84756 43.1143 2.92919C42.7527 2.51175 42.3912 2.01083 42.0296 1.59339C41.8489 1.34292 41.6681 1.17595 41.3969 0.925483C41.2162 0.508044 40.945 0.25758 40.7642 0.0906048Z" fill="#42ADE2"/>
<path d="M7.23089 12.5303C5.42317 13.2817 4.79046 15.2854 5.60394 16.9551L16.9926 38.9124L23.3197 36.1573L11.931 14.1166C11.1175 12.4468 9.03862 11.6954 7.23089 12.5303ZM37.1488 29.9792L43.8373 27.0572L30.8217 2.01082C29.9179 0.341066 27.7486 -0.410324 25.8505 0.424554C24.0427 1.25943 23.2293 3.26314 24.1331 5.01638L37.1488 29.9792Z" fill="#FFDD67"/>
<path d="M25.9409 0.341067C25.7601 0.424555 25.5793 0.508043 25.3986 0.675018C27.1159 0.257579 28.9236 1.00897 29.7371 2.51175L42.7527 27.5581L43.9278 27.0572L30.9121 2.01082C30.0083 0.257579 27.839 -0.493811 25.9409 0.341067Z" fill="#EBA352"/>
<path d="M23.3197 36.0739L30.2794 32.9848L16.9926 7.43753C16.0887 5.68429 13.7387 4.84941 11.8406 5.68429C9.94248 6.51917 9.12901 8.68985 10.0329 10.4431L23.3197 36.0739Z" fill="#FFDD67"/>
<path d="M11.8406 5.76777C11.6598 5.85126 11.4791 5.93475 11.2983 6.10173C13.0156 5.68429 15.0041 6.43568 15.8176 8.02195L24.0428 23.9681L26.0313 25.0535L16.9926 7.52102C16.0888 5.68429 13.8291 4.9329 11.8406 5.76777Z" fill="#EBA352"/>
<path d="M29.1948 30.9811L36.1545 27.8921L22.8677 2.34477C21.9639 0.591529 19.6138 -0.24335 17.7157 0.675016C15.8176 1.50989 15.0041 3.68058 15.908 5.43382L29.1948 30.9811Z" fill="#FFDD67"/>
<path d="M17.7157 0.591532C17.5349 0.675019 17.3542 0.841995 17.1734 0.925483C18.8907 0.508044 20.8792 1.25943 21.6927 2.8457L31.0025 20.8791L32.991 21.9644L22.8677 2.34478C21.9639 0.508044 19.6138 -0.243347 17.7157 0.591532ZM7.2309 12.5303C7.05013 12.6138 6.86936 12.6973 6.68858 12.8642C8.31554 12.4468 10.0329 13.1982 10.756 14.701L17.5349 27.8086L19.5234 28.8939L11.931 14.2C11.1175 12.4468 9.03863 11.6954 7.2309 12.5303Z" fill="#EBA352"/>
<path d="M53.1471 10.0257C50.7067 8.27241 46.7297 10.1926 44.7412 16.2038C43.3854 20.3781 43.2047 21.6305 40.3123 22.8828L38.6853 19.7937C38.6853 19.7937 13.0156 31.2316 14.0099 33.0683C14.0099 33.0683 17.083 41.918 22.3254 46.0089C30.0986 52.187 48.2663 45.5915 49.0798 29.6453C49.5317 20.3781 55.7683 11.9459 53.1471 10.0257Z" fill="#FFDD67"/>
<path d="M53.1471 10.0257C52.6952 9.69171 52.1529 9.52473 51.6106 9.44124C51.701 9.52473 51.8817 9.52473 51.9721 9.60822C54.6837 11.5284 51.8817 15.9533 50.3452 19.9607C49.0798 23.1332 47.9951 26.3893 48.1759 29.5618C48.899 43.4208 33.8045 50.0163 24.7658 47.5117C33.6237 50.9347 50.074 44.4226 49.3509 29.9793C49.1701 26.8067 50.1644 23.7177 51.5202 20.3781C52.9664 16.3707 55.7683 11.9459 53.1471 10.0257Z" fill="#EBA352"/>
<path d="M41.1258 22.5488C35.5218 23.1332 27.2967 30.5637 33.0814 38.662C28.8332 30.4802 35.793 24.97 40.2219 23.0498C40.6738 22.7158 41.1258 22.5488 41.1258 22.5488Z" fill="#EBA352"/>
</svg>
